<svg width="14" height="14" viewBox="0 0 14 14" fill="none" xmlns="http://www.w3.org/2000/svg">
<path d="M5 2H9V1H5V2ZM14 7V10.75C14 11.0938 13.8776 11.388 13.6328 11.6328C13.388 11.8776 13.0938 12 12.75 12H1.25C0.90625 12 0.611979 11.8776 0.367188 11.6328C0.122396 11.388 0 11.0938 0 10.75V7H5.25V8.25C5.25 8.38542 5.29948 8.5026 5.39844 8.60156C5.4974 8.70052 5.61458 8.75 5.75 8.75H8.25C8.38542 8.75 8.5026 8.70052 8.60156 8.60156C8.70052 8.5026 8.75 8.38542 8.75 8.25V7H14ZM8 7V8H6V7H8ZM14 3.25V6.25H0V3.25C0 2.90625 0.122396 2.61198 0.367188 2.36719C0.611979 2.1224 0.90625 2 1.25 2H4V0.75C4 0.541667 4.07292 0.364583 4.21875 0.21875C4.36458 0.072917 4.54167 0 4.75 0H9.25C9.45833 0 9.63542 0.072917 9.78125 0.21875C9.92708 0.364583 10 0.541667 10 0.75V2H12.75C13.0938 2 13.388 2.1224 13.6328 2.36719C13.8776 2.61198 14 2.90625 14 3.25Z" fill="#333333"/>
</svg>
