<svg width="6" height="7" viewBox="0 0 6 7" fill="none" xmlns="http://www.w3.org/2000/svg">
<path d="M2.84402 3.622V3.846L1.05202 6.618L0.485024 6.352C0.335691 6.28667 0.247024 6.19333 0.219024 6.072C0.195691 5.95067 0.223691 5.82 0.303024 5.68L1.27602 4.028C1.34136 3.90667 1.41602 3.80867 1.50002 3.734C1.41602 3.65933 1.34136 3.56133 1.27602 3.44L0.303024 1.795C0.223691 1.655 0.195691 1.52433 0.219024 1.403C0.247024 1.277 0.335691 1.18133 0.485024 1.116L1.05202 0.85L2.84402 3.622ZM5.14702 3.622V3.846L3.35502 6.618L2.78802 6.352C2.63869 6.28667 2.55002 6.19333 2.52202 6.072C2.49869 5.95067 2.52669 5.82 2.60602 5.68L3.57902 4.028C3.64436 3.90667 3.71902 3.80867 3.80302 3.734C3.71902 3.65933 3.64436 3.56133 3.57902 3.44L2.60602 1.795C2.52669 1.655 2.49869 1.52433 2.52202 1.403C2.55002 1.277 2.63869 1.18133 2.78802 1.116L3.35502 0.85L5.14702 3.622Z" fill="#333333"/>
</svg>
