<svg width="8" height="14" viewBox="0 0 8 14" fill="none" xmlns="http://www.w3.org/2000/svg">
<g opacity="0.5">
<path d="M5.41406 6.41406C5.41406 6.41406 5.51172 6.31641 5.70703 6.12109C5.90234 5.92578 6 5.55208 6 5C6 4.44792 5.80469 3.97656 5.41406 3.58594C5.02344 3.19531 4.55208 3 4 3C3.44792 3 2.97656 3.19531 2.58594 3.58594C2.19531 3.97656 2 4.44792 2 5C2 5.55208 2.19531 6.02344 2.58594 6.41406C2.97656 6.80469 3.44792 7 4 7C4.55208 7 5.02344 6.80469 5.41406 6.41406ZM8 5C8 5.56771 7.91406 6.03385 7.74219 6.39844L4.89844 12.4453C4.8151 12.6172 4.69141 12.7526 4.52734 12.8516C4.36328 12.9505 4.1875 13 4 13C3.8125 13 3.63672 12.9505 3.47266 12.8516C3.30859 12.7526 3.1875 12.6172 3.10938 12.4453L0.257812 6.39844C0.0859375 6.03385 0 5.56771 0 5C0 3.89583 0.390625 2.95312 1.17188 2.17188C1.95312 1.39062 2.89583 1 4 1C5.10417 1 6.04688 1.39062 6.82812 2.17188C7.60938 2.95312 8 3.89583 8 5Z" fill="#333333"/>
</g>
</svg>
