<svg width="8" height="14" viewBox="0 0 8 14" fill="none" xmlns="http://www.w3.org/2000/svg">
<g opacity="0.5">
<g clip-path="url(#clip0_533_2631)">
<path d="M7.01782 3.67188V4.46875C7.01782 4.54167 6.99438 4.60156 6.94751 4.64844C6.90063 4.69531 6.84074 4.71875 6.76782 4.71875H5.45532C5.33553 5.46875 4.99959 6.07812 4.44751 6.54688C3.89543 7.01562 3.17668 7.30208 2.29126 7.40625C3.16105 8.33333 4.35636 9.72917 5.8772 11.5938C5.95011 11.6771 5.96053 11.7656 5.90845 11.8594C5.86678 11.9531 5.79126 12 5.68188 12H4.15845C4.07511 12 4.01001 11.9688 3.96313 11.9062C2.36938 9.99479 1.07251 8.50781 0.0725098 7.44531C0.0256348 7.39844 0.00219727 7.34115 0.00219727 7.27344V6.28125C0.00219727 6.21354 0.0269368 6.15495 0.076416 6.10547C0.125895 6.05599 0.184489 6.03125 0.252197 6.03125H1.1272C1.8147 6.03125 2.36808 5.91927 2.78735 5.69531C3.20662 5.47135 3.47355 5.14583 3.58813 4.71875H0.252197C0.179281 4.71875 0.119385 4.69531 0.0725098 4.64844C0.0256348 4.60156 0.00219727 4.54167 0.00219727 4.46875V3.67188C0.00219727 3.59896 0.0256348 3.53906 0.0725098 3.49219C0.119385 3.44531 0.179281 3.42188 0.252197 3.42188H3.47876C3.18188 2.83333 2.48397 2.53906 1.38501 2.53906H0.252197C0.184489 2.53906 0.125895 2.51432 0.076416 2.46484C0.0269368 2.41536 0.00219727 2.35677 0.00219727 2.28906V1.25C0.00219727 1.17708 0.0256348 1.11719 0.0725098 1.07031C0.119385 1.02344 0.179281 1 0.252197 1H6.7522C6.82511 1 6.88501 1.02344 6.93188 1.07031C6.97876 1.11719 7.0022 1.17708 7.0022 1.25V2.04688C7.0022 2.11979 6.97876 2.17969 6.93188 2.22656C6.88501 2.27344 6.82511 2.29688 6.7522 2.29688H4.93188C5.17668 2.61458 5.34334 2.98958 5.43188 3.42188H6.76782C6.84074 3.42188 6.90063 3.44531 6.94751 3.49219C6.99438 3.53906 7.01782 3.59896 7.01782 3.67188Z" fill="#333333"/>
</g>
</g>
<defs>
<clipPath id="clip0_533_2631">
<rect width="7.02" height="14" fill="white" transform="matrix(1 0 0 -1 0 14)"/>
</clipPath>
</defs>
</svg>
